<svg id="구성_요소_1_1" data-name="구성 요소 1 – 1" xmlns="http://www.w3.org/2000/svg" width="16.142" height="14.264" viewBox="0 0 16.142 14.264">
  <g id="사각형_25" data-name="사각형 25" transform="translate(10.142 10.621)" fill="#fff" stroke="#2b2e34" stroke-width="1">
    <rect width="6" height="1.5" rx="0.75" stroke="none"/>
    <rect x="0.5" y="0.5" width="5" height="0.5" rx="0.25" fill="none"/>
  </g>
  <g id="패스_9" data-name="패스 9" transform="translate(10.021 0) rotate(45)" fill="none" stroke-linecap="round">
    <path d="M1,0H5A1.006,1.006,0,0,1,6,1.012V11.135c.012,0-3.039,3.026-3,3.037-.087-.051-2.987-3.05-3-3.037V1.012A1.006,1.006,0,0,1,1,0Z" stroke="none"/>
    <path d="M 1.500004291534424 1.499999046325684 L 1.500004291534424 10.51295948028564 C 1.727911949157715 10.74493408203125 2.024226665496826 11.04812526702881 2.334504365921021 11.36559867858887 C 2.531631708145142 11.56730175018311 2.761750221252441 11.80276107788086 2.987232446670532 12.03300094604492 C 3.33736252784729 11.68131446838379 3.723649978637695 11.2951488494873 4.050154209136963 10.96874904632568 C 4.205573081970215 10.81338214874268 4.363095283508301 10.65591239929199 4.500004291534424 10.51883697509766 L 4.500004291534424 1.499999046325684 L 1.500004291534424 1.499999046325684 M 1.000004291534424 -9.5367431640625e-07 L 5.000004291534424 -9.5367431640625e-07 C 5.552284240722656 -9.5367431640625e-07 6.000004291534424 0.4531984329223633 6.000004291534424 1.012258529663086 L 6.000004291534424 11.13482856750488 C 6.012391567230225 11.1381893157959 2.976622581481934 14.1450719833374 2.999758243560791 14.17145156860352 C 2.907411813735962 14.11510562896729 0.02538633346557617 11.13478755950928 0.0001249313354492188 11.13478755950928 C 6.961822509765625e-05 11.13478755950928 3.24249267578125e-05 11.13479995727539 4.291534423828125e-06 11.13482856750488 L 4.291534423828125e-06 1.012258529663086 C 4.291534423828125e-06 0.4531984329223633 0.4477143287658691 -9.5367431640625e-07 1.000004291534424 -9.5367431640625e-07 Z M 2.999758243560791 14.17145156860352 C 2.999843120574951 14.1715030670166 2.999924182891846 14.17155170440674 3.000004291534424 14.17159843444824 C 2.999901056289673 14.17157077789307 2.999819278717041 14.17152118682861 2.999758243560791 14.17145156860352 Z" stroke="none" fill="#2b2e34"/>
  </g>
</svg>
