<svg id="구성_요소_2_1" data-name="구성 요소 2 – 1" xmlns="http://www.w3.org/2000/svg" width="13.792" height="14.267" viewBox="0 0 13.792 14.267">
  <g id="구성_요소_1_1" data-name="구성 요소 1 – 1">
    <g id="합치기_2" data-name="합치기 2" transform="translate(967 2)" fill="none">
      <path d="M-954.06,12.121l-3.321-3.32a6,6,0,0,1-3.606,1.2A6.006,6.006,0,0,1-967,4a6.006,6.006,0,0,1,6.012-6,6.006,6.006,0,0,1,6.013,6,5.974,5.974,0,0,1-1.657,4.136l3.278,3.278a.5.5,0,0,1,0,.707.5.5,0,0,1-.353.146A.5.5,0,0,1-954.06,12.121Z" stroke="none"/>
      <path d="M -960.9876098632813 8.999897956848145 C -959.8929443359375 8.999897956848145 -958.8531494140625 8.654447555541992 -957.980712890625 8.000877380371094 L -957.6448974609375 7.749345302581787 L -957.3553466796875 7.445737838745117 C -956.4650268554688 6.512317657470703 -955.9747314453125 5.288447856903076 -955.9747314453125 3.999597787857056 C -955.9747314453125 1.242917776107788 -958.2235107421875 -0.9998021721839905 -960.9876098632813 -0.9998021721839905 C -963.7512817382813 -0.9998021721839905 -965.9996337890625 1.242917776107788 -965.9996337890625 3.999597787857056 C -965.9996337890625 6.756767749786377 -963.7512817382813 8.999897956848145 -960.9876098632813 8.999897956848145 M -953.7070922851563 12.26767826080322 C -953.8348999023438 12.26767826080322 -953.962646484375 12.21884822845459 -954.060302734375 12.12119770050049 L -957.3811645507813 8.801227569580078 C -958.3858032226563 9.553797721862793 -959.6346435546875 9.999897956848145 -960.9876098632813 9.999897956848145 C -964.3077392578125 9.999897956848145 -966.9996337890625 7.313397884368896 -966.9996337890625 3.999597787857056 C -966.9996337890625 0.6866978406906128 -964.3077392578125 -1.999802112579346 -960.9876098632813 -1.999802112579346 C -957.6666259765625 -1.999802112579346 -954.9747314453125 0.6866978406906128 -954.9747314453125 3.999597787857056 C -954.9747314453125 5.602897644042969 -955.6050415039063 7.05952787399292 -956.6317138671875 8.135928153991699 L -953.3538208007813 11.41379737854004 C -953.1585083007813 11.60909748077393 -953.1585083007813 11.9258975982666 -953.3538208007813 12.12119770050049 C -953.4514770507813 12.21884822845459 -953.5792846679688 12.26767826080322 -953.7070922851563 12.26767826080322 Z" stroke="none" fill="#2b2e34"/>
    </g>
  </g>
</svg>
