<svg xmlns="http://www.w3.org/2000/svg" width="12.078" height="12.756" viewBox="0 0 12.078 12.756">
  <g id="그룹_25" data-name="그룹 25" transform="translate(-1230.922 -97)">
    <path id="빼기_2" data-name="빼기 2" d="M-168.105,103h-6.1a1.129,1.129,0,0,1-.881-.278c-.27-.306-.2-.835-.12-1.506.019-.154.041-.328.059-.506a2,2,0,0,0,1.04.291h5a2,2,0,0,0,2-2V95h1.985a2.251,2.251,0,0,1,.015.274V100A3,3,0,0,1-168.105,103Z" transform="translate(1408.105 3)" fill="#c4c4c6"/>
    <g id="그룹_24" data-name="그룹 24" transform="translate(-1)">
      <path id="패스_10" data-name="패스 10" d="M1.058-.058,5.291-.291a.928.928,0,0,1,1,1A1.21,1.21,0,0,1,5.175,1.825L.942,2.058a.928.928,0,0,1-1-1A1.21,1.21,0,0,1,1.058-.058Z" transform="translate(1232.172 104.908) rotate(-45)" fill="#c4c4c6"/>
      <path id="패스_11" data-name="패스 11" d="M1.058.058,5.291.291A1.21,1.21,0,0,1,6.407,1.407a.928.928,0,0,1-1,1L1.175,2.175A1.21,1.21,0,0,1,.058,1.058.928.928,0,0,1,1.058.058Z" transform="translate(1233.586 103.521) rotate(45)" fill="#c4c4c6"/>
    </g>
    <circle id="타원_14" data-name="타원 14" cx="1" cy="1" r="1" transform="translate(1241 97)" fill="#c4c4c6"/>
  </g>
</svg>
