<svg xmlns="http://www.w3.org/2000/svg" xmlns:xlink="http://www.w3.org/1999/xlink" viewBox="0 0 878.27 200.19"><defs><style>.cls-1{isolation:isolate;}.cls-2{fill:#fff;}.cls-3{fill:url(#linear-gradient);}.cls-4{fill:url(#linear-gradient-2);}.cls-5{fill:#002caf;opacity:0.15;}</style><linearGradient id="linear-gradient" x1="-2393.42" y1="921.57" x2="-2393.42" y2="920.15" gradientTransform="matrix(180, 0, 0, -180, 431035.3, 165902.46)" gradientUnits="userSpaceOnUse"><stop offset="0" stop-color="#6f71ff"/><stop offset="0.17" stop-color="#6263f0"/><stop offset="0.49" stop-color="#3f3dc9"/><stop offset="0.91" stop-color="#0a058f"/></linearGradient><linearGradient id="linear-gradient-2" x1="-2396.36" y1="921.57" x2="-2396.09" y2="920.58" gradientTransform="matrix(245.01, 0, 0, -180.01, 587212.39, 165913.5)" gradientUnits="userSpaceOnUse"><stop offset="0" stop-color="#589eff"/><stop offset="0.26" stop-color="#4589fc"/><stop offset="0.8" stop-color="#1452f3"/><stop offset="1" stop-color="#003cf0"/></linearGradient></defs><g id="Layer_2" data-name="Layer 2"><g id="Layer_1-2" data-name="Layer 1"><g id="aska" class="cls-1"><g class="cls-1"><path class="cls-2" d="M460.07,49.2H491.8v123H460.07V157.69q-14.26,18-40.1,17.95-24.6,0-42.19-18.81T360.2,110.7q0-27.3,17.58-46.12T420,45.76q25.83,0,40.1,18Zm-58.55,86.47q9.6,9.72,24.36,9.72t24.47-9.72q9.72-9.72,9.72-25t-9.72-25Q440.63,76,425.88,76t-24.36,9.72q-9.58,9.72-9.59,25T401.52,135.67Z"/><path class="cls-2" d="M548.88,84.13q0,4.94,6.51,8a87.29,87.29,0,0,0,15.87,5.41,166.7,166.7,0,0,1,18.7,5.9,36.31,36.31,0,0,1,15.86,11.93q6.52,8.37,6.52,20.91,0,19-14.14,29.16t-35.3,10.2q-37.89,0-51.66-29.27l27.55-15.5q5.4,16,24.11,16,17,0,17-10.58,0-4.91-6.52-8a93.67,93.67,0,0,0-15.86-5.54,163.31,163.31,0,0,1-18.7-6.15,38.36,38.36,0,0,1-15.87-11.68q-6.51-8-6.52-20,0-18.2,13.41-28.66t33.33-10.45a55.73,55.73,0,0,1,27.31,6.76,49.42,49.42,0,0,1,19.43,19.31L582.82,86.59q-5.9-12.54-19.68-12.54a18.07,18.07,0,0,0-10.21,2.7A8.45,8.45,0,0,0,548.88,84.13Z"/><path class="cls-2" d="M746.17,172.2h-36.9L664.5,116.32V172.2H632.76V0H664.5V103.53L706.81,49.2h37.88L695.25,110Z"/><path class="cls-2" d="M846.54,49.2h31.73v123H846.54V157.69q-14.28,18-40.1,17.95-24.6,0-42.19-18.81T746.66,110.7q0-27.3,17.59-46.12t42.19-18.82q25.83,0,40.1,18ZM788,135.67q9.6,9.72,24.35,9.72t24.48-9.72q9.72-9.72,9.72-25t-9.72-25Q827.1,76,812.34,76T788,85.73q-9.6,9.72-9.6,25T788,135.67Z"/></g></g><path id="패스_11452" data-name="패스 11452" class="cls-3" d="M310,110.19a90,90,0,1,0-90,90,90,90,0,0,0,90-90Zm-130,0a40,40,0,1,1,40,40,40,40,0,0,1-40-40Z"/><path id="패스_11453" data-name="패스 11453" class="cls-4" d="M220,150.19a40,40,0,0,1-40-40,90,90,0,1,0-25,62.25,89.75,89.75,0,0,0,65,27.75,25,25,0,0,0,0-50Zm-130,0a40,40,0,1,1,40-40,40,40,0,0,1-40,40Z"/><circle id="타원_2844" data-name="타원 2844" class="cls-5" cx="220.01" cy="175.18" r="25"/></g></g></svg>