<svg xmlns="http://www.w3.org/2000/svg" width="21.475" height="13.125" viewBox="0 0 21.475 13.125">
  <g id="아트웍_2" data-name="아트웍 2" transform="translate(-12.525 -18)">
    <path id="comment-dots-solid" d="M7.5,32C3.357,32,0,34.728,0,38.094a5.409,5.409,0,0,0,1.67,3.829A7.453,7.453,0,0,1,.064,44.729a.233.233,0,0,0-.044.255.229.229,0,0,0,.214.141,6.7,6.7,0,0,0,4.119-1.506,8.935,8.935,0,0,0,3.146.568c4.143,0,7.5-2.728,7.5-6.094S11.643,32,7.5,32ZM3.75,39.031a.938.938,0,1,1,.938-.937A.936.936,0,0,1,3.75,39.031Zm3.75,0a.938.938,0,1,1,.938-.937A.936.936,0,0,1,7.5,39.031Zm3.75,0a.938.938,0,1,1,.938-.937A.936.936,0,0,1,11.25,39.031Z" transform="translate(19 -14)" fill="#6b6d71"/>
    <path id="sort-up-solid" d="M22.386,60.425H17.435a.5.5,0,0,1-.354-.853L19.557,57.1a.5.5,0,0,1,.705,0l2.475,2.475A.5.5,0,0,1,22.386,60.425Z" transform="translate(-44.425 44.361) rotate(-90)" fill="#6b6d71"/>
  </g>
</svg>
