<svg xmlns="http://www.w3.org/2000/svg" xmlns:xlink="http://www.w3.org/1999/xlink" viewBox="0 0 310.01 180.01"><defs><style>.cls-1{fill:url(#linear-gradient);}.cls-2{fill:url(#linear-gradient-2);}.cls-3{fill:#002caf;opacity:0.15;}</style><linearGradient id="linear-gradient" x1="-3859.94" y1="821.92" x2="-3859.94" y2="820.5" gradientTransform="matrix(180, 0, 0, -180, 695010, 147945.13)" gradientUnits="userSpaceOnUse"><stop offset="0" stop-color="#6f71ff"/><stop offset="0.17" stop-color="#6263f0"/><stop offset="0.49" stop-color="#3f3dc9"/><stop offset="0.91" stop-color="#0a058f"/></linearGradient><linearGradient id="linear-gradient-2" x1="-3865.06" y1="821.92" x2="-3864.79" y2="820.93" gradientTransform="matrix(245.01, 0, 0, -180.01, 947061.51, 147954.98)" gradientUnits="userSpaceOnUse"><stop offset="0" stop-color="#589eff"/><stop offset="0.26" stop-color="#4589fc"/><stop offset="0.8" stop-color="#1452f3"/><stop offset="1" stop-color="#003cf0"/></linearGradient></defs><g id="Layer_2" data-name="Layer 2"><g id="Layer_1-2" data-name="Layer 1"><path id="패스_11452" data-name="패스 11452" class="cls-1" d="M310,90a90,90,0,1,0-90,90,90,90,0,0,0,90-90ZM180,90a40,40,0,1,1,40,40,40,40,0,0,1-40-40Z"/><path id="패스_11453" data-name="패스 11453" class="cls-2" d="M220,130a40,40,0,0,1-40-40,90,90,0,1,0-25,62.25A89.75,89.75,0,0,0,220,180a25,25,0,0,0,0-50ZM90,130a40,40,0,1,1,40-40,40,40,0,0,1-40,40Z"/><circle id="타원_2844" data-name="타원 2844" class="cls-3" cx="220.01" cy="155" r="25"/></g></g></svg>